<?xml version="1.0" encoding="utf-8"?>
<!-- Generator: Adobe Illustrator 27.5.0, SVG Export Plug-In . SVG Version: 6.00 Build 0)  -->
<svg version="1.1" id="Layer_1" xmlns="http://www.w3.org/2000/svg" xmlns:xlink="http://www.w3.org/1999/xlink" x="0px" y="0px"
	 viewBox="0 0 1920 1080" style="enable-background:new 0 0 1920 1080;" xml:space="preserve">
<path d="M802,491.4c10.6,0,18.9,2.2,24.8,6.7c5.9,4.4,8.8,10.6,8.8,18.6c0,5.8-1.5,10.6-4.6,14.4c-3.1,3.7-7.6,6.3-13.4,7.6
	c14.5,2.5,21.8,10.1,21.8,22.9c0,8.4-3.1,15-9.4,19.8c-6.2,4.8-15.1,7.2-26.7,7.2h-36.9v-97.1H802z M782.3,532.6h20.1
	c5.5,0,9.7-1.2,12.7-3.7c3-2.5,4.5-5.9,4.5-10.3c0-4.3-1.5-7.7-4.5-10.2c-3-2.5-7.2-3.7-12.7-3.7h-20.1V532.6L782.3,532.6z
	 M782.3,575h21.1c6.3,0,11.1-1.3,14.5-3.8c3.4-2.5,5.1-6.1,5.1-10.6c0-4.5-1.7-8.4-5.1-11c-3.4-2.6-8.2-3.9-14.4-3.9h-21.1V575
	L782.3,575z"/>
<path d="M846,533.9c2.9-5.5,7-9.8,12.2-12.8c5.2-3,11.2-4.5,18-4.5c6.7,0,12.9,1.4,18.1,4.2s9.3,6.7,12.3,11.8
	c3,5.1,4.6,11.1,4.6,17.9c0,1.9-0.1,3.7-0.4,5.7h-53.6v0.8c0.4,6.2,2.3,11.1,5.8,14.7c3.5,3.6,8.2,5.4,14,5.4
	c4.6,0,8.5-1.1,11.7-3.3c3.1-2.2,5.2-5.2,6.2-9.2h15c-1.3,7.2-4.8,13.1-10.5,17.8c-5.7,4.6-12.8,6.9-21.3,6.9
	c-7.4,0-13.9-1.5-19.4-4.5c-5.5-3-9.8-7.2-12.8-12.7c-3-5.5-4.5-11.8-4.5-19C841.7,545.9,843.1,539.4,846,533.9L846,533.9z
	 M896,545.2c-0.6-5.2-2.7-9.2-6.2-12.1c-3.5-2.9-7.8-4.4-13.1-4.4c-4.9,0-9.1,1.5-12.7,4.5c-3.6,3-5.6,7-6.2,12L896,545.2L896,545.2
	z"/>
<path d="M985.8,575.5v13h-7.9c-4.6,0-8-1-10-2.9c-2-1.9-3-4.8-3-8.5c-5.4,8.1-13.2,12.2-23.4,12.2c-8,0-14.3-1.8-19.1-5.5
	c-4.8-3.7-7.2-8.8-7.2-15.3c0-7.3,2.6-12.9,7.8-16.9c5.2-3.9,12.7-5.9,22.6-5.9h17.9v-4.3c0-4-1.4-7.1-4.2-9.4
	c-2.8-2.3-6.6-3.4-11.5-3.4c-4.3,0-7.9,1-10.8,2.8c-2.8,1.9-4.5,4.4-5.1,7.6h-14.7c0.7-7.1,3.9-12.6,9.4-16.6
	c5.5-3.9,12.8-5.9,21.8-5.9c9.5,0,16.9,2.2,22.1,6.7c5.2,4.4,7.8,10.8,7.8,19.1v28c0,3.3,1.6,5,4.7,5L985.8,575.5L985.8,575.5z
	 M963.3,556.9h-18.6c-4.6,0-8.2,0.9-10.7,2.7c-2.5,1.8-3.7,4.5-3.7,8c0,3.1,1.2,5.5,3.5,7.4c2.4,1.9,5.6,2.8,9.6,2.8
	c6.2,0,11-1.7,14.5-5c3.5-3.3,5.2-7.8,5.3-13.3V556.9z"/>
<path d="M993,530.6h-12.3v-13.2H993v-19.8h15.1v19.8h17.1v13.2h-17.1v37c0,2.8,0.6,4.7,1.7,5.9c1.1,1.2,3,1.7,5.7,1.7h11.4v13.2
	h-14.4c-6.8,0-11.7-1.6-14.8-4.7c-3.1-3.1-4.6-8-4.6-14.6L993,530.6L993,530.6z"/>
<path d="M1087.5,521c5.1,2.9,9.1,7.1,11.9,12.6c2.9,5.5,4.3,12,4.3,19.4c0,7.4-1.4,13.6-4.3,19.1c-2.9,5.5-6.8,9.8-11.9,12.8
	c-5.1,3-10.9,4.5-17.3,4.5c-5.3,0-9.8-1-13.7-2.9s-7-4.6-9.3-7.9v37.7h-15v-98.8h13l1.8,10.5c5.7-7.6,13.5-11.4,23.2-11.4
	C1076.6,516.6,1082.4,518.1,1087.5,521z M1082.7,570c3.8-4.4,5.8-10.1,5.8-17.1s-1.9-12.7-5.8-17.1c-3.8-4.3-8.9-6.5-15.1-6.5
	s-11.2,2.1-15,6.5c-3.8,4.3-5.7,9.9-5.7,16.9c0,6.9,1.9,12.9,5.7,17.3c3.8,4.4,8.8,6.7,15,6.7C1073.9,576.7,1078.9,574.5,1082.7,570
	z"/>
<path d="M1124.9,584.8c-5.5-3-9.8-7.3-12.8-12.8c-3-5.5-4.5-11.9-4.5-19.1c0-7.2,1.5-13.4,4.5-18.9c3-5.5,7.3-9.8,12.8-12.8
	c5.5-3,11.8-4.6,18.9-4.6c7.1,0,13.4,1.5,18.9,4.6c5.5,3,9.8,7.3,12.8,12.8c3,5.5,4.5,11.8,4.5,18.9s-1.5,13.6-4.5,19.1
	c-3,5.5-7.3,9.8-12.8,12.8c-5.5,3-11.8,4.5-18.9,4.5C1136.7,589.3,1130.4,587.8,1124.9,584.8z M1159,570c3.8-4.4,5.8-10.1,5.8-17
	c0-6.9-1.9-12.6-5.8-17c-3.8-4.4-8.9-6.6-15.2-6.6c-6.3,0-11.3,2.2-15.1,6.6c-3.8,4.4-5.7,10.1-5.7,17c0,6.9,1.9,12.6,5.7,17
	s8.8,6.6,15.1,6.6S1155.2,574.4,1159,570z"/>
<path d="M1223,517.5v14h-6.7c-6.2,0-10.7,2-13.5,6c-2.8,4-4.2,9.1-4.2,15.3v35.7h-15v-71h13.3l1.7,10.7c2-3.3,4.7-5.9,7.9-7.8
	c3.2-1.9,7.6-2.8,13-2.8L1223,517.5L1223,517.5z"/>
<path d="M1227,497.6h15v19.8h17.2v13.2H1242v37c0,2.8,0.6,4.7,1.7,5.9c1.1,1.2,3,1.7,5.7,1.7h11.4v13.2h-14.4
	c-6.8,0-11.7-1.6-14.7-4.7c-3-3.1-4.6-8-4.6-14.6L1227,497.6L1227,497.6z"/>
<path d="M715.4,539.8c0,28.1-22.5,50.8-51.1,50.8c-28.5,0-50.8-22.2-50.8-50.8c0-13.5,5.1-25.4,13.3-34.4l-34.5,34.4l-18.1-18
	l38.9-38.4c5.3-5.3,8-12.1,8-19.6v-48.1h25.5v48.1c0,14.8-5.3,27.3-15.5,37.5l-1.1,1.1c9-8.2,21.3-13.2,34.4-13.2
	C693.3,489.3,715.4,512.1,715.4,539.8L715.4,539.8z M692.3,539.8c0-15.1-12.6-27.3-28-27.3c-15.4,0-27.7,12.8-27.7,27.3
	c0,14.5,12.3,27.6,27.7,27.6C679.8,567.4,692.3,554.4,692.3,539.8z"/>
</svg>
